<?xml version="1.0" standalone="no"?><!DOCTYPE svg PUBLIC "-//W3C//DTD SVG 1.1//EN" "http://www.w3.org/Graphics/SVG/1.1/DTD/svg11.dtd"><svg t="1748931024974" class="icon" viewBox="0 0 1024 1024" version="1.1" xmlns="http://www.w3.org/2000/svg" p-id="7884" xmlns:xlink="http://www.w3.org/1999/xlink" width="200" height="200"><path d="M731 860.34H292.7A111.25 111.25 0 0 1 181.83 739.9L203.9 474a111.25 111.25 0 0 1 110.87-102H708.9a111.25 111.25 0 0 1 110.87 102l22.07 266A111.25 111.25 0 0 1 731 860.34zM314.77 421.91a61.24 61.24 0 0 0-61 56.18L231.66 744a61.24 61.24 0 0 0 61 66.31H731A61.23 61.23 0 0 0 792 744l-22.06-265.91a61.24 61.24 0 0 0-61-56.18z" p-id="7885"></path><path d="M654.65 412.71a25 25 0 0 1-25-25v-51.24a117.81 117.81 0 0 0-235.62 0v51.24a25 25 0 1 1-50 0v-51.24c0-92.53 75.28-167.81 167.81-167.81s167.81 75.28 167.81 167.81v51.24a25 25 0 0 1-25 25zM598.77 561.11H424.9a25 25 0 0 1 0-50h173.87a25 25 0 0 1 0 50z" p-id="7886"></path><path d="M511.84 747.73a25 25 0 0 1-25-25V555.49a25 25 0 0 1 50 0v167.24a25 25 0 0 1-25 25z" p-id="7887"></path></svg>