<?xml version="1.0" standalone="no"?>
<!DOCTYPE svg PUBLIC "-//W3C//DTD SVG 20010904//EN"
 "http://www.w3.org/TR/2001/REC-SVG-20010904/DTD/svg10.dtd">
<svg version="1.0" xmlns="http://www.w3.org/2000/svg"
 width="80.000000pt" height="80.000000pt" viewBox="0 0 80.000000 80.000000"
 preserveAspectRatio="xMidYMid meet">

<g transform="translate(0.000000,80.000000) scale(0.100000,-0.100000)"
fill="#000000" stroke="none">
<path d="M440 515 c-33 -33 -40 -45 -26 -45 29 0 53 18 66 50 7 17 11 33 8 35
-2 3 -24 -16 -48 -40z"/>
<path d="M215 436 c-16 -8 -59 -44 -95 -81 -36 -37 -58 -64 -50 -60 33 18 220
146 220 150 0 10 -46 4 -75 -9z"/>
<path d="M650 393 c0 -6 12 -48 27 -93 27 -82 27 -82 45 -60 29 36 22 67 -27
118 -24 26 -45 42 -45 35z"/>
</g>
</svg>
