<?xml version="1.0" standalone="no"?>
<!DOCTYPE svg PUBLIC "-//W3C//DTD SVG 20010904//EN"
 "http://www.w3.org/TR/2001/REC-SVG-20010904/DTD/svg10.dtd">
<svg version="1.0" xmlns="http://www.w3.org/2000/svg"
 width="76.000000pt" height="98.000000pt" viewBox="0 0 76.000000 98.000000"
 preserveAspectRatio="xMidYMid meet">

<g transform="translate(0.000000,98.000000) scale(0.100000,-0.100000)"
fill="#000000" stroke="none">
<path d="M288 873 c-30 -34 -50 -85 -39 -96 12 -12 10 -15 39 46 12 26 25 47
30 47 10 0 46 -47 55 -73 5 -14 14 -17 39 -12 18 3 48 7 67 8 26 1 44 12 70
40 50 53 65 45 95 -47 4 -13 10 -16 16 -10 7 7 6 22 -1 45 -27 78 -72 91 -123
34 -29 -32 -37 -35 -87 -35 -50 0 -56 3 -82 35 -31 39 -56 44 -79 18z"/>
<path d="M220 720 c-11 -16 -25 -43 -31 -59 l-11 -30 -40 20 c-38 20 -40 20
-76 2 -45 -22 -61 -60 -42 -100 7 -15 13 -65 14 -109 1 -67 5 -86 21 -104 30
-33 74 -53 105 -46 l28 5 -1 -97 -2 -97 34 -37 34 -38 198 0 c109 0 209 4 223
10 29 11 56 57 56 98 0 15 5 33 11 39 23 23 -40 203 -80 227 -6 4 -8 13 -4 21
4 12 -8 15 -68 15 -41 0 -85 3 -98 7 -21 5 -22 3 -16 -17 10 -31 -16 -49 -45
-30 -12 7 -9 13 15 36 27 25 32 26 106 21 58 -4 79 -2 82 7 6 16 -100 26 -270
26 -109 0 -112 1 -132 26 -28 35 -29 117 -2 160 41 67 34 104 -9 44z m-108
-120 c4 0 8 7 8 15 0 8 4 15 10 15 16 0 27 -32 34 -100 9 -94 30 -112 138
-118 60 -3 89 -9 103 -22 11 -9 26 -20 32 -24 13 -7 53 10 65 28 4 5 37 11 75
13 l68 3 34 -68 c45 -89 54 -187 23 -249 -15 -29 -29 -42 -49 -46 -15 -3 -29
-4 -30 -3 -1 1 4 23 12 48 11 39 11 49 0 58 -10 9 -14 3 -20 -30 -4 -22 -12
-43 -18 -47 -6 -4 -8 0 -4 10 4 11 1 17 -9 17 -8 0 -17 -13 -20 -30 -8 -35
-24 -40 -25 -7 0 12 -4 31 -9 42 -7 16 -9 12 -15 -23 -5 -24 -12 -41 -19 -39
-17 6 -19 75 -2 116 8 21 11 43 7 50 -12 19 -42 -51 -48 -114 -5 -52 -6 -53
-30 -44 -13 5 -57 9 -98 9 -87 0 -99 8 -114 80 -9 40 -8 67 4 123 19 93 20 90
-15 72 -47 -24 -95 -20 -120 13 -20 24 -22 36 -17 107 4 70 2 83 -15 102 -24
26 -16 48 13 33 17 -10 19 -7 20 22 0 31 1 32 11 11 6 -13 15 -23 20 -23z
m112 -127 c12 -16 14 -24 6 -21 -16 5 -46 48 -34 48 5 0 18 -12 28 -27z"/>
<path d="M671 694 c37 -71 38 -122 4 -171 -30 -45 -23 -59 10 -20 49 56 50
124 2 210 -34 62 -50 44 -16 -19z"/>
<path d="M362 688 c7 -19 35 -21 41 -3 5 11 0 15 -19 15 -16 0 -24 -5 -22 -12z"/>
<path d="M512 684 c9 -9 21 -13 28 -9 14 9 -5 25 -30 25 -12 0 -12 -3 2 -16z"/>
<path d="M425 670 c-15 -16 -15 -22 -5 -35 10 -12 10 -18 0 -30 -10 -13 -9
-15 8 -15 12 0 24 5 27 11 5 7 15 5 31 -6 19 -12 24 -13 24 -2 0 7 -6 19 -12
25 -10 10 -10 15 2 23 13 8 11 12 -9 29 -29 25 -43 25 -66 0z"/>
</g>
</svg>
