<svg xmlns="http://www.w3.org/2000/svg" width="22" height="22" viewBox="0 0 22 22">
                                                            <g>
                                                                <path fill="#4285F4" d="M20.801,11.223c0-0.822-0.067-1.423-0.212-2.044H11.2v3.709h5.512C16.6,13.812,16,15.2,14.666,16.134l-0.018,0.123l2.969,2.301l0.206,0.021C19.711,16.833,20.801,14.268,20.801,11.223"></path>
                                                                <path fill="#34A853" d="M11.2,21c2.7,0,4.967-0.889,6.624-2.422l-3.157-2.444c-0.844,0.589-1.978,1-3.466,1c-2.645,0-4.889-1.745-5.689-4.155l-0.117,0.011l-3.087,2.388L2.266,15.49C3.911,18.756,7.289,21,11.2,21"></path>
                                                                <path fill="#FBBC05" d="M5.511,12.979C5.3,12.356,5.178,11.689,5.178,11S5.3,9.645,5.5,9.022L5.494,8.89L2.369,6.463L2.266,6.512C1.589,7.867,1.2,9.389,1.2,11c0,1.611,0.389,3.134,1.066,4.49L5.511,12.979"></path>
                                                                <path fill="#EB4335" d="M11.2,4.867c1.878,0,3.144,0.811,3.867,1.489L17.888,3.6C16.155,1.989,13.899,1,11.2,1C7.289,1,3.911,3.245,2.266,6.512L5.5,9.022C6.311,6.611,8.555,4.867,11.2,4.867"></path>
                                                            </g>
                                                        </svg>