<?xml version="1.0" standalone="no"?>
<!DOCTYPE svg PUBLIC "-//W3C//DTD SVG 20010904//EN"
 "http://www.w3.org/TR/2001/REC-SVG-20010904/DTD/svg10.dtd">
<svg version="1.0" xmlns="http://www.w3.org/2000/svg"
 width="200.000000pt" height="200.000000pt" viewBox="0 0 200.000000 200.000000"
 preserveAspectRatio="xMidYMid meet">

<g transform="translate(0.000000,200.000000) scale(0.100000,-0.100000)"
fill="#000000" stroke="none">
<path d="M885 1990 c-228 -29 -442 -136 -599 -300 -162 -170 -250 -360 -277
-597 -18 -168 20 -374 101 -535 51 -103 90 -157 174 -246 421 -443 1150 -396
1516 98 143 193 217 460 190 687 -61 506 -444 868 -950 897 -47 2 -116 1 -155
-4z m228 -334 c151 -29 303 -122 396 -243 90 -116 132 -228 146 -386 7 -75 8
-79 28 -72 12 3 41 9 63 12 36 5 44 2 57 -18 9 -13 18 -51 22 -84 3 -33 8 -70
11 -83 4 -19 -3 -26 -38 -42 -23 -10 -45 -17 -49 -14 -4 2 -11 40 -15 84 -7
85 -15 100 -41 79 -13 -11 -14 -27 -10 -86 l5 -73 -43 -20 c-24 -11 -48 -20
-54 -20 -5 0 -20 -18 -32 -40 -13 -22 -26 -40 -30 -40 -4 0 -9 16 -11 35 -3
27 1 38 17 49 19 13 20 18 11 115 -7 75 -13 101 -23 101 -9 0 -12 -7 -9 -17 2
-10 7 -57 11 -104 l7 -86 -43 -21 c-53 -26 -54 -24 -64 79 -4 50 -15 93 -31
124 -13 27 -24 57 -24 67 0 10 -4 18 -10 18 -13 0 -13 -12 5 -165 l15 -130
-22 -17 c-28 -22 -16 -24 16 -2 23 15 24 14 36 -20 22 -69 -34 -134 -153 -176
-31 -11 -62 -20 -68 -20 -8 0 -9 24 -4 87 6 73 11 92 31 112 45 45 39 144 -11
177 -19 12 -25 28 -30 77 -18 166 -69 309 -136 382 -22 23 -55 81 -78 134 -23
52 -43 96 -45 98 -2 2 -27 -27 -56 -65 -49 -64 -57 -70 -96 -75 -58 -6 -102
-41 -157 -124 -25 -38 -59 -81 -76 -96 -36 -31 -38 -55 -12 -113 40 -89 124
-153 201 -154 55 -1 64 -11 57 -64 -6 -40 -4 -46 12 -46 10 0 32 7 47 15 41
21 63 19 68 -7 16 -85 22 -194 11 -206 -12 -13 -62 -29 -121 -39 -38 -6 -90
19 -99 47 -5 16 -10 19 -20 10 -11 -9 -15 -2 -20 37 -13 102 -16 116 -26 106
-7 -7 -6 -39 1 -94 14 -113 14 -114 -16 -128 -15 -6 -24 -14 -21 -18 4 -3 13
0 22 7 21 17 26 9 19 -28 -4 -19 -13 -32 -21 -32 -19 0 -153 129 -153 147 0 8
9 31 20 53 11 22 20 44 20 50 0 22 -18 -1 -44 -55 l-26 -56 35 -41 c19 -23 35
-45 35 -48 0 -10 -48 -30 -70 -30 -10 0 -22 5 -25 10 -10 16 -23 12 -30 -10
-5 -16 -15 -20 -51 -20 -42 0 -45 1 -38 23 3 12 15 39 26 60 l19 39 -37 45
c-30 36 -34 47 -23 54 27 18 62 22 82 10 33 -21 36 5 10 70 -77 190 -69 371
23 559 66 132 162 228 294 294 149 73 277 91 433 62z m46 -827 c39 -14 63 -57
63 -114 0 -55 -17 -81 -70 -106 -57 -28 -124 -22 -159 14 -51 50 -39 155 21
187 14 7 26 17 26 22 0 12 82 10 119 -3z"/>
<path d="M1333 1319 c-110 -119 -146 -240 -104 -351 l10 -26 50 16 c38 13 49
21 45 32 -4 8 -9 38 -11 66 -6 61 15 109 82 184 49 55 55 78 27 103 -30 27
-58 20 -99 -24z"/>
<path d="M1502 990 c2 -19 -3 -34 -12 -40 -8 -5 -10 -10 -4 -10 26 0 47 27 40
53 -9 37 -28 34 -24 -3z"/>
<path d="M610 805 c0 -33 12 -46 25 -25 8 12 -5 60 -16 60 -5 0 -9 -16 -9 -35z"/>
<path d="M780 696 c-11 -31 6 -96 25 -96 21 0 25 13 18 69 -6 56 -27 69 -43
27z"/>
<path d="M1072 768 c-26 -26 -8 -118 23 -118 33 0 46 70 19 108 -17 25 -25 27
-42 10z"/>
</g>
</svg>
