<?xml version="1.0" standalone="no"?><!DOCTYPE svg PUBLIC "-//W3C//DTD SVG 1.1//EN" "http://www.w3.org/Graphics/SVG/1.1/DTD/svg11.dtd"><svg t="1754920123852" class="icon" viewBox="0 0 1024 1024" version="1.1" xmlns="http://www.w3.org/2000/svg" p-id="6673" xmlns:xlink="http://www.w3.org/1999/xlink" width="200" height="200"><path d="M191 640c-1.9-10.1-10.7-17.5-21-17.5-1.3 0-2.6 0.1-4 0.4-5.6 1.1-10.5 4.2-13.7 9-3.2 4.7-4.4 10.4-3.4 16 1.9 10.1 10.7 17.5 21 17.5 1.3 0 2.6-0.1 4-0.4 11.6-2.1 19.2-13.3 17.1-25zM445.4 573.2h-52.7v-52.7c0-15.7-10.2-28.5-22.9-28.5S347 504.8 347 520.5v52.7H294.4c-15.7 0-28.5 10.2-28.5 22.9 0 12.6 12.7 22.9 28.5 22.9H347v52.7c0 15.7 10.2 28.5 22.9 28.5s22.9-12.7 22.9-28.5V619h52.7c15.7 0 28.5-10.2 28.5-22.9-0.1-12.7-12.9-22.9-28.6-22.9zM691.9 501.5c-52.1 0-94.6 42.4-94.6 94.6 0 52.1 42.4 94.5 94.6 94.5 52.1 0 94.5-42.4 94.5-94.5 0-52.2-42.4-94.6-94.5-94.6z m0 146.6c-28.7 0-52-23.3-52-52s23.3-52 52-52 52 23.3 52 52c0 28.6-23.4 52-52 52z" fill="#6B400D" p-id="6674"></path><path d="M691.9 544c-28.7 0-52 23.3-52 52s23.3 52 52 52 52-23.3 52-52c0-28.6-23.4-52-52-52z" fill="#FFD524" p-id="6675"></path><path d="M692.9 352c-4.7 0-9.4 0.1-13.7 0.4-4.4-0.3-8.8-0.4-13.2-0.4H548.5c-0.2-59.4-14.9-101.9-119.4-107.6-104.2-5.7-93.7-63.7-93.7-81.3 0-12.9-10.5-23.5-23.5-23.5-12.9 0-23.4 10.5-23.4 23.5 0 73.8 41.4 122.9 138.1 128.1 76 4.2 75.5 24.3 75.1 55.5l0.2 5.3H356.7c-4.4 0-8.8 0.1-12.9 0.4-4.6-0.3-9.3-0.4-14-0.4-146.5 0-265.6 119.1-265.6 265.5S183.3 883 329.7 883c57.9 0 115-19.3 159.3-53.8l42.8-0.6c46 35.1 103.2 54.4 161 54.4 146.4 0 265.5-119.1 265.6-265.5 0-146.4-119.1-265.5-265.5-265.5z m0 484.2c-49.9 0-98.7-17.2-137.4-48.6-4.1-3.4-9.4-5.2-14.8-5.2h-58.8c-5.4 0-10.6 1.9-14.7 5.2-38.8 31.3-87.6 48.6-137.4 48.6-120.5 0-218.6-98.1-218.6-218.6C111.2 497 209.3 399 329.8 399c4.2 0 8.3 0.1 12.5 0.4h2.8c3.9-0.2 7.7-0.4 11.7-0.4H666c3.9 0 7.8 0.1 11.7 0.4h2.8c4.1-0.3 8.3-0.4 12.5-0.4 120.5 0 218.6 98.1 218.6 218.6-0.1 120.5-98.2 218.6-218.7 218.6z" fill="#6B400D" p-id="6676"></path><path d="M347.2 766l-2.8 0.1c-54.3-1.4-105.4-31.4-133.9-79.2-4.5-10.1-10.5-15.1-18.5-15.1-1.3 0-2.6 0.1-4 0.4-5.2 1-9.8 4-12.8 8.3-3 4.4-4.1 9.7-3.1 14.9l1.1 2.8c1.5 3.4 2.1 4.7 2.4 5 35.2 62.4 101.3 101.2 172.6 101.2l3.7-0.2c4.8-0.6 9.2-3.3 12.2-7.5 3.2-4.4 4.5-10 3.5-15.3-1.8-9.4-9.6-15.4-20.4-15.4z" fill="#6B400D" p-id="6677"></path></svg>