<?xml version="1.0" standalone="no"?>
<!DOCTYPE svg PUBLIC "-//W3C//DTD SVG 20010904//EN"
 "http://www.w3.org/TR/2001/REC-SVG-20010904/DTD/svg10.dtd">
<svg version="1.0" xmlns="http://www.w3.org/2000/svg"
 width="60.000000pt" height="60.000000pt" viewBox="0 0 60.000000 60.000000"
 preserveAspectRatio="xMidYMid meet">

<g transform="translate(0.000000,60.000000) scale(0.100000,-0.100000)"
fill="#000000" stroke="none">
<path d="M0 300 l0 -300 300 0 300 0 0 300 0 300 -300 0 -300 0 0 -300z m317
130 c10 -26 9 -30 -6 -30 -10 0 -23 11 -29 25 -15 34 -15 35 6 35 10 0 22 -12
29 -30z m24 4 c5 -15 8 -29 5 -31 -2 -2 -8 10 -14 26 -13 38 -5 41 9 5z m159
-4 l0 -30 -65 0 c-61 0 -66 2 -75 26 -6 14 -10 27 -10 30 0 2 34 4 75 4 l75 0
0 -30z m10 -205 c0 -83 -1 -85 -24 -85 -29 0 -36 21 -36 108 l0 62 30 0 30 0
0 -85z m-101 -55 c8 -24 7 -30 -5 -30 -8 0 -19 12 -24 26 -13 33 -13 34 4 34
8 0 19 -13 25 -30z m35 -16 c3 -8 2 -12 -4 -9 -6 3 -10 10 -10 16 0 14 7 11
14 -7z"/>
</g>
</svg>
