<?xml version="1.0" standalone="no"?><!DOCTYPE svg PUBLIC "-//W3C//DTD SVG 1.1//EN" "http://www.w3.org/Graphics/SVG/1.1/DTD/svg11.dtd"><svg t="1748929810263" class="icon" viewBox="0 0 1024 1024" version="1.1" xmlns="http://www.w3.org/2000/svg" p-id="2925" xmlns:xlink="http://www.w3.org/1999/xlink" width="200" height="200"><path d="M909.9 278.2c-0.2-10.5-6.2-20-15.6-24.7L517.1 66.8c-8.2-4-17.8-3.9-25.9 0.5L312.1 164c-3.5 1.1-6.7 2.8-9.6 5.2l-181 97.7c-1.4 0.8-2.7 1.7-4 2.6-0.2 0.1-0.4 0.3-0.6 0.5-0.2 0.1-0.3 0.3-0.5 0.4-2.9 2.5-5.3 5.6-7.1 9.3-2.1 4.6-2.9 9.5-2.6 14.2l7.4 429.3c0.1 10.1 5.6 19.3 14.5 24.1l377.2 209.2c1.3 0.7 2.6 1.3 4 1.8 0.1 0 0.2 0.1 0.3 0.1 0.3 0.1 0.7 0.2 1 0.4 0.2 0.1 0.4 0.1 0.5 0.2 0.4 0.1 0.9 0.2 1.3 0.3 0.3 0.1 0.7 0.2 1 0.2 0.2 0 0.4 0.1 0.6 0.1 0.3 0.1 0.7 0.1 1 0.2 0.2 0 0.4 0.1 0.6 0.1 0.4 0 0.7 0.1 1.1 0.1h0.5c0.5 0 1.1 0.1 1.6 0.1h0.5c3.1 0 6-0.6 8.7-1.5h0.1c0.6-0.2 1.1-0.4 1.6-0.6 0.1 0 0.1 0 0.2-0.1 0.6-0.2 1.1-0.5 1.7-0.8 0.6-0.3 1.1-0.6 1.6-0.9h0.1L903.6 734c8.6-5.2 13.8-14.6 13.6-24.6l-7.3-431.2zM505.1 123.6l314.2 155.5-125.8 64.6L382.1 190l123-66.4z m6.3 313.7L197.2 289.8l126.6-68.3 309.9 153-122.3 62.8z m-347.7-101l320.5 150.3 6.4 397.2L170.2 706l-6.5-369.7z m383.1 546.4l-6.4-397.1 314-161.3 6.3 369.8-313.9 188.6z" p-id="2926"></path></svg>