<?xml version="1.0" standalone="no"?>
<!DOCTYPE svg PUBLIC "-//W3C//DTD SVG 20010904//EN"
 "http://www.w3.org/TR/2001/REC-SVG-20010904/DTD/svg10.dtd">
<svg version="1.0" xmlns="http://www.w3.org/2000/svg"
 width="1200.000000pt" height="630.000000pt" viewBox="0 0 1200.000000 630.000000"
 preserveAspectRatio="xMidYMid meet">

<g transform="translate(0.000000,630.000000) scale(0.100000,-0.100000)"
fill="#000000" stroke="none">
<path d="M8695 4821 c-41 -10 -67 -25 -90 -51 -19 -21 -20 -39 -22 -324 -2
-165 -3 -302 -3 -303 0 -1 -19 5 -42 13 -61 22 -152 20 -222 -5 -32 -11 -62
-18 -67 -15 -5 3 -57 77 -116 166 -139 208 -148 218 -207 218 -75 0 -137 -39
-271 -170 -66 -64 -149 -136 -185 -160 -124 -84 -210 -198 -195 -258 3 -15 14
-35 22 -45 15 -16 14 -19 -7 -42 -22 -24 -22 -25 -5 -52 16 -24 262 -320 413
-498 l49 -57 -79 -126 c-43 -69 -77 -130 -75 -136 2 -6 11 -12 19 -14 11 -2
40 36 89 112 41 64 77 116 80 116 4 0 55 -57 115 -127 60 -71 185 -217 278
-325 l169 -198 113 0 c64 0 115 4 119 10 4 6 -33 10 -104 10 -61 0 -111 4
-111 9 0 37 11 41 121 41 66 0 109 4 109 10 0 6 -42 10 -105 10 -58 0 -105 4
-105 8 0 9 91 157 118 190 18 23 19 23 73 9 30 -9 66 -18 80 -21 l27 -6 -40
-122 c-65 -206 -62 -311 12 -389 20 -22 42 -39 48 -39 9 0 12 47 12 163 0 200
10 347 23 347 6 0 7 -43 3 -117 -3 -65 -9 -243 -12 -396 l-7 -278 32 -12 c31
-12 32 -12 29 -72 -3 -55 -5 -60 -26 -61 -48 -3 -158 -136 -179 -216 -10 -42
-10 -56 2 -84 18 -44 72 -69 129 -60 52 9 153 63 241 129 l70 52 0 150 c0 145
1 150 23 163 l22 13 0 405 c0 382 -1 407 -20 443 -64 126 -224 149 -319 46
l-41 -45 -68 16 c-85 20 -175 55 -275 107 -60 32 -76 45 -70 57 4 8 8 67 8
130 l0 114 34 23 c19 13 52 28 75 34 23 6 51 17 64 25 19 13 21 18 10 37 -6
12 -13 38 -15 57 -2 19 -16 50 -30 68 -23 31 -29 34 -63 28 -21 -3 -45 -9 -53
-12 -12 -4 -16 6 -21 48 -11 118 -37 520 -33 524 5 5 37 -6 202 -66 72 -27
241 -87 377 -134 l247 -85 268 93 c147 52 330 117 406 145 77 28 142 51 145
51 7 0 -14 -490 -24 -547 -4 -30 -7 -31 -30 -23 -50 19 -91 12 -113 -19 -12
-16 -21 -38 -21 -49 0 -12 -5 -24 -11 -27 -5 -4 -8 -12 -6 -18 2 -7 0 -20 -5
-30 -11 -20 14 -57 38 -57 16 0 113 -36 134 -50 12 -7 15 -36 15 -149 l0 -140
-100 -50 c-55 -28 -143 -62 -195 -76 l-95 -25 -35 40 c-61 70 -145 88 -230 49
-56 -25 -77 -44 -101 -90 -16 -33 -18 -70 -20 -437 -3 -421 -2 -432 41 -432
16 0 18 -10 18 -87 1 -49 -4 -102 -10 -119 -10 -27 -8 -37 11 -67 47 -77 186
-173 284 -198 89 -22 167 25 167 101 0 73 -139 256 -186 247 -19 -3 -23 2 -29
32 -3 20 -8 48 -11 62 -4 22 -1 28 20 33 14 3 30 14 35 24 6 12 6 101 1 243
-18 451 -20 544 -11 517 5 -16 15 -128 21 -250 7 -123 14 -225 17 -228 7 -8
42 41 69 95 34 71 32 141 -11 304 -20 73 -33 136 -30 139 3 4 25 11 48 17 23
6 52 15 64 19 18 6 28 -2 61 -46 22 -29 54 -79 72 -110 l32 -58 -106 0 c-64 0
-106 -4 -106 -10 0 -6 43 -10 108 -10 106 0 109 -1 120 -25 l12 -25 -116 0
c-74 0 -113 -4 -109 -10 4 -6 55 -10 120 -10 l114 0 271 320 c149 175 275 322
280 325 5 3 43 -46 84 -110 72 -109 99 -134 112 -101 3 8 -30 71 -75 141 l-81
126 245 286 246 286 -25 26 c-25 26 -25 26 -6 51 24 31 25 62 3 107 -24 51
-108 139 -177 186 -34 22 -118 96 -187 163 -171 168 -251 204 -329 152 -18
-13 -82 -93 -142 -178 -147 -209 -132 -197 -204 -170 -107 41 -160 42 -258 4
-18 -7 -19 -1 -12 182 3 104 9 237 12 296 l7 107 -30 29 c-44 45 -110 54 -346
51 -111 -2 -260 0 -332 3 -71 4 -143 4 -160 -1z m380 -24 c50 0 146 1 215 3
136 3 199 -9 232 -42 19 -19 20 -28 14 -142 -3 -66 -9 -201 -13 -299 l-6 -177
-86 -45 -86 -45 -15 22 c-29 45 -80 86 -126 102 -60 20 -177 21 -236 0 -55
-18 -121 -72 -137 -112 l-12 -28 -103 50 c-90 44 -105 55 -110 80 -10 47 -7
553 4 580 20 53 80 67 245 59 72 -4 171 -6 220 -6z m-1091 -315 c39 -35 247
-359 240 -375 -5 -14 13 -327 31 -543 5 -61 5 -62 -26 -74 -48 -20 -62 -50
-57 -123 3 -43 16 -89 43 -151 41 -94 51 -170 26 -200 -7 -8 -10 -20 -6 -25 8
-14 117 -74 185 -102 30 -12 59 -26 64 -30 5 -4 -8 -31 -29 -58 -20 -28 -49
-74 -64 -102 l-28 -50 -424 502 c-634 752 -649 770 -649 791 0 28 36 94 76
138 20 22 79 71 133 109 53 38 123 99 155 136 71 80 147 140 213 165 52 21 87
18 117 -8z m2325 -4 c29 -14 90 -66 161 -139 63 -64 142 -134 175 -156 71 -48
176 -156 195 -202 9 -22 10 -40 4 -56 -5 -13 -142 -180 -305 -372 -337 -395
-604 -712 -698 -826 -72 -87 -62 -88 -119 13 -17 30 -43 67 -57 82 -28 30 -31
38 -14 38 9 0 221 95 238 107 2 1 3 44 2 96 -2 89 0 97 33 163 50 97 63 161
42 205 -9 19 -31 43 -49 55 l-32 21 11 239 c7 131 15 266 18 300 3 34 1 65 -3
70 -11 11 225 347 259 368 35 22 86 20 139 -6z m-537 -334 l77 -27 -277 -92
c-153 -51 -302 -105 -331 -119 -29 -15 -55 -25 -58 -22 -13 13 326 152 470
193 53 15 97 31 97 35 0 4 -4 8 -9 8 -20 0 -295 -93 -357 -121 -37 -16 -69
-28 -71 -25 -13 12 259 120 354 141 36 7 54 25 26 25 -31 0 -247 -77 -324
-115 -46 -22 -64 -28 -49 -16 39 32 239 131 295 146 70 19 71 18 157 -11z
m-1201 -20 c70 -23 242 -104 263 -124 5 -5 -32 9 -82 30 -83 36 -318 110 -349
110 -7 0 -13 -4 -13 -8 0 -5 26 -15 58 -22 97 -21 261 -78 359 -124 51 -25 93
-47 93 -50 0 -2 -33 10 -72 29 -87 39 -196 73 -373 115 -172 41 -169 40 -105
61 66 22 113 18 221 -17z m-88 -65 c164 -41 405 -124 394 -135 -2 -2 -48 13
-103 32 -54 20 -166 55 -249 79 -158 46 -181 59 -42 24z m101 -55 c138 -44
358 -125 353 -131 -4 -4 -467 153 -475 162 -11 10 13 4 122 -31z m589 -5 c31
-7 57 -15 56 -18 0 -3 -37 -34 -81 -69 l-80 -64 -32 30 c-17 16 -53 45 -79 65
l-48 35 63 15 c78 19 129 20 201 6z m-1500 -561 c190 -227 420 -501 511 -608
126 -149 166 -202 166 -222 0 -16 -4 -28 -9 -28 -10 0 -125 133 -562 650 -345
409 -473 562 -483 577 -7 12 11 42 26 43 3 0 161 -186 351 -412z m3177 372 c0
-4 -62 -79 -137 -166 -76 -88 -310 -363 -521 -612 -367 -433 -385 -453 -399
-433 -13 20 -9 28 78 134 138 167 497 593 629 747 64 74 160 188 214 253 94
113 99 117 117 101 11 -9 19 -20 19 -24z m-2467 -314 c1 -5 -26 -17 -60 -26
-62 -17 -119 -47 -109 -57 3 -3 34 7 69 22 68 28 127 37 134 19 2 -6 -30 -21
-71 -34 -41 -13 -87 -34 -103 -47 -31 -27 -27 -26 65 12 69 29 109 36 114 20
1 -5 -26 -19 -62 -31 -77 -25 -130 -51 -130 -64 0 -13 13 -13 26 0 13 13 141
60 165 60 36 0 15 -23 -37 -40 -89 -29 -119 -51 -122 -93 -2 -20 -7 -37 -11
-37 -14 0 -54 103 -59 152 -9 90 11 116 110 143 57 15 78 15 81 1z m1506 -16
c57 -29 75 -68 62 -131 -6 -27 -21 -69 -33 -92 -19 -36 -23 -39 -26 -20 -5 35
-56 70 -133 93 -43 13 -67 25 -63 32 10 16 75 4 140 -26 58 -27 83 -27 48 -2
-15 12 -109 46 -173 63 -10 3 -11 7 -3 15 14 14 90 -4 155 -38 27 -14 54 -23
60 -21 20 7 -53 46 -126 68 -64 20 -86 34 -73 46 10 10 113 -17 161 -43 52
-27 55 -28 55 -14 0 14 -87 55 -147 70 -31 7 -50 16 -47 22 10 16 96 2 143
-22z m-1219 -936 c0 -54 -4 -83 -10 -79 -5 3 -10 42 -10 86 0 46 4 79 10 79 6
0 10 -35 10 -86z m820 -4 c0 -47 -4 -80 -10 -80 -6 0 -10 33 -10 80 0 47 4 80
10 80 6 0 10 -33 10 -80z m-490 -690 l0 -109 -77 -65 c-105 -88 -187 -129
-247 -124 -52 4 -59 -15 -7 -20 66 -7 175 49 279 142 50 46 52 47 52 22 0 -33
-97 -113 -205 -167 -68 -35 -87 -40 -125 -36 -62 7 -95 45 -86 100 4 21 13 52
22 68 15 30 108 138 129 151 6 4 38 -5 70 -18 33 -14 67 -28 75 -31 36 -16
-12 25 -51 42 -39 18 -41 21 -35 54 3 20 6 51 6 69 l0 32 100 0 100 0 0 -110z
m354 94 c2 -6 7 -36 11 -66 l7 -56 -35 -11 c-20 -7 -41 -19 -47 -27 -17 -20 1
-18 47 5 77 40 87 38 146 -21 97 -97 122 -185 67 -240 -28 -28 -36 -30 -80
-26 -112 11 -320 160 -320 229 0 12 17 1 55 -36 87 -85 257 -174 303 -158 21
8 3 23 -27 23 -39 0 -94 24 -171 76 -125 83 -140 104 -147 213 -3 44 -3 85 -1
93 7 17 186 19 192 2z"/>
<path d="M8754 1771 c11 -17 86 -53 86 -41 0 12 -36 35 -69 45 -16 5 -21 4
-17 -4z"/>
<path d="M9365 1764 c-38 -19 -53 -34 -37 -34 15 0 92 38 92 45 0 10 -26 5
-55 -11z"/>
<path d="M8976 3805 c-3 -9 -5 -105 -5 -213 2 -272 15 -673 18 -582 5 100 2
803 -3 807 -2 2 -6 -3 -10 -12z"/>
<path d="M9157 3813 c-12 -11 -8 -861 3 -868 7 -4 10 143 10 434 0 243 -1 441
-3 441 -2 0 -7 -3 -10 -7z"/>
<path d="M2460 3345 c0 -193 2 -225 15 -225 13 0 15 32 15 225 0 193 -2 225
-15 225 -13 0 -15 -32 -15 -225z"/>
<path d="M4610 3520 l0 -50 -56 0 c-47 0 -55 3 -50 16 16 42 18 64 4 64 -7 0
-21 -22 -30 -48 -10 -27 -29 -65 -43 -86 -24 -35 -26 -56 -5 -56 5 0 20 18 32
40 23 40 23 40 86 40 l62 0 0 -60 0 -60 -75 0 c-60 0 -75 -3 -75 -15 0 -12 15
-15 75 -15 l75 0 0 -65 0 -65 -105 0 c-87 0 -105 -3 -105 -15 0 -13 31 -15
220 -15 189 0 220 2 220 15 0 12 -18 15 -100 15 l-100 0 0 65 0 65 80 0 c64 0
80 3 80 15 0 12 -16 15 -80 15 l-80 0 0 60 0 60 90 0 c73 0 90 3 90 15 0 12
-17 15 -90 15 l-90 0 0 50 c0 38 -4 50 -15 50 -11 0 -15 -12 -15 -50z"/>
<path d="M4935 3549 c-4 -6 -5 -11 -4 -13 52 -38 112 -55 93 -25 -11 19 -83
49 -89 38z"/>
<path d="M5215 3545 c-33 -7 -81 -16 -108 -20 -67 -9 -50 -29 19 -22 l54 6 0
-45 0 -44 -75 0 c-60 0 -75 -3 -75 -15 0 -12 15 -15 75 -15 l75 0 0 -45 0 -45
-55 0 -55 0 0 -95 c0 -78 3 -95 15 -95 8 0 15 5 15 10 0 6 37 10 90 10 53 0
90 -4 90 -10 0 -5 7 -10 15 -10 12 0 15 17 15 95 l0 95 -50 0 -50 0 0 45 0 45
70 0 c56 0 70 3 70 15 0 12 -14 15 -70 15 l-70 0 0 50 c0 41 3 50 18 50 33 0
93 21 87 31 -7 11 -22 10 -100 -6z m65 -330 l0 -55 -90 0 -90 0 0 55 0 55 90
0 90 0 0 -55z"/>
<path d="M5515 3543 c-33 -8 -70 -16 -82 -19 -13 -2 -23 -9 -23 -16 0 -7 15
-9 45 -5 l45 7 0 -45 0 -45 -50 0 c-38 0 -50 -4 -50 -15 0 -11 12 -15 45 -15
25 0 45 -2 45 -5 0 -14 -52 -105 -75 -133 -16 -19 -23 -36 -19 -47 6 -16 9
-15 26 6 10 13 31 47 46 74 l27 50 3 -107 c2 -87 6 -108 17 -108 12 0 15 20
15 112 l0 112 31 -43 c21 -28 35 -39 42 -32 6 6 -5 26 -32 58 -22 27 -41 52
-41 56 0 4 20 7 45 7 33 0 45 4 45 15 0 11 -12 15 -45 15 l-45 0 0 49 c0 48 0
49 38 58 20 5 36 13 35 18 -3 15 -21 14 -88 -2z"/>
<path d="M946 3542 c-3 -5 12 -26 33 -46 50 -48 68 -30 20 20 -34 35 -44 40
-53 26z"/>
<path d="M1920 3335 c0 -184 2 -215 15 -215 8 0 15 5 15 10 0 6 63 10 170 10
107 0 170 -4 170 -10 0 -5 9 -10 20 -10 20 0 20 5 18 213 l-3 212 -202 3 -203
2 0 -215z m370 10 l0 -175 -170 0 -170 0 0 175 0 175 170 0 170 0 0 -175z"/>
<path d="M2030 3345 l0 -85 90 0 90 0 0 85 0 85 -90 0 -90 0 0 -85z m150 0 l0
-65 -60 0 -60 0 0 65 0 65 60 0 60 0 0 -65z"/>
<path d="M3446 3542 c-3 -5 12 -26 33 -46 50 -48 68 -30 20 20 -34 35 -44 40
-53 26z"/>
<path d="M1450 3525 c0 -13 23 -15 145 -15 l145 0 0 -25 0 -25 -140 0 c-118 0
-140 -2 -140 -15 0 -13 22 -15 140 -15 l140 0 0 -25 0 -25 -165 0 c-140 0
-165 -2 -165 -15 0 -12 18 -15 100 -15 l100 0 0 -49 0 -49 -95 -38 c-54 -21
-95 -43 -95 -51 0 -19 11 -17 96 22 42 19 80 35 85 35 5 0 9 -18 9 -40 0 -39
-1 -40 -35 -40 -24 0 -35 -5 -35 -15 0 -18 51 -21 81 -5 16 9 19 22 19 80 l0
70 40 -44 c49 -53 119 -92 146 -82 16 6 10 13 -37 36 -50 26 -88 56 -78 63 65
47 89 71 78 78 -8 4 -29 -6 -54 -27 -23 -19 -45 -34 -49 -34 -9 0 -46 62 -46
78 0 9 27 12 100 12 82 0 100 3 100 15 0 11 -11 15 -36 15 l-37 0 7 80 7 80
-165 0 c-141 0 -166 -2 -166 -15z"/>
<path d="M3950 3525 c0 -13 23 -15 145 -15 l145 0 0 -25 0 -25 -140 0 c-118 0
-140 -2 -140 -15 0 -13 22 -15 140 -15 l140 0 0 -25 0 -25 -165 0 c-140 0
-165 -2 -165 -15 0 -12 18 -15 100 -15 l100 0 0 -49 0 -49 -95 -38 c-54 -21
-95 -43 -95 -51 0 -19 11 -17 96 22 42 19 80 35 85 35 5 0 9 -18 9 -40 0 -39
-1 -40 -35 -40 -24 0 -35 -5 -35 -15 0 -18 51 -21 81 -5 16 9 19 22 19 80 l0
70 40 -44 c49 -53 119 -92 146 -82 16 6 10 13 -37 36 -50 26 -88 56 -78 63 65
47 89 71 78 78 -8 4 -29 -6 -54 -27 -23 -19 -45 -34 -49 -34 -9 0 -46 62 -46
78 0 9 27 12 100 12 82 0 100 3 100 15 0 11 -11 15 -36 15 l-37 0 7 80 7 80
-165 0 c-141 0 -166 -2 -166 -15z"/>
<path d="M1080 3515 c0 -12 18 -15 100 -15 l100 0 0 -65 0 -65 -95 0 -95 0 0
-107 c0 -60 5 -115 10 -123 10 -16 158 -28 205 -16 35 9 59 106 26 106 -4 0
-12 -17 -17 -37 l-9 -38 -90 0 -90 0 -3 93 -3 92 81 0 c64 0 80 -3 80 -15 0
-8 7 -15 15 -15 12 0 15 19 15 110 l0 110 -115 0 c-96 0 -115 -3 -115 -15z"/>
<path d="M3580 3515 c0 -12 18 -15 100 -15 l100 0 0 -65 0 -65 -95 0 -95 0 0
-107 c0 -60 5 -115 10 -123 10 -16 158 -28 205 -16 35 9 59 106 26 106 -4 0
-12 -17 -17 -37 l-9 -38 -90 0 -90 0 -3 93 -3 92 81 0 c64 0 80 -3 80 -15 0
-8 7 -15 15 -15 12 0 15 19 15 110 l0 110 -115 0 c-96 0 -115 -3 -115 -15z"/>
<path d="M2570 3505 c0 -12 17 -15 95 -15 52 0 95 -2 95 -5 0 -3 -35 -47 -79
-99 -100 -118 -135 -178 -127 -212 9 -34 42 -44 150 -44 76 0 96 3 109 18 20
22 27 103 10 109 -9 3 -13 -6 -13 -27 0 -64 -10 -70 -114 -70 -101 0 -124 10
-111 50 7 22 87 126 178 229 31 36 54 68 51 73 -3 4 -59 8 -125 8 -99 0 -119
-3 -119 -15z"/>
<path d="M5640 3330 c0 -162 2 -190 15 -190 8 0 15 9 15 20 0 18 7 20 60 20
53 0 60 -2 60 -20 0 -11 7 -20 15 -20 13 0 15 28 15 190 l0 190 -90 0 -90 0 0
-190z m150 20 l0 -140 -60 0 -60 0 0 140 0 140 60 0 60 0 0 -140z"/>
<path d="M2510 3461 c5 -11 15 -32 20 -47 7 -18 14 -24 21 -17 13 13 -19 83
-38 83 -10 0 -11 -5 -3 -19z"/>
<path d="M2406 3420 c-4 -28 -9 -57 -12 -65 -4 -8 -1 -15 5 -15 14 0 26 30 35
88 5 32 3 42 -8 42 -9 0 -16 -17 -20 -50z"/>
<path d="M4906 3411 c-7 -10 75 -62 86 -54 17 10 6 23 -32 43 -45 23 -47 23
-54 11z"/>
<path d="M900 3395 c0 -11 11 -15 40 -15 l40 0 0 -103 c0 -62 -4 -107 -11
-114 -6 -6 -8 -16 -4 -22 6 -10 88 40 102 62 11 17 -7 19 -32 3 l-25 -16 0
110 0 110 -55 0 c-42 0 -55 -3 -55 -15z"/>
<path d="M3400 3395 c0 -11 11 -15 40 -15 l40 0 0 -103 c0 -62 -4 -107 -11
-114 -6 -6 -8 -16 -4 -22 6 -10 88 40 102 62 11 17 -7 19 -32 3 l-25 -16 0
110 0 110 -55 0 c-42 0 -55 -3 -55 -15z"/>
<path d="M1456 3321 c-9 -14 76 -73 88 -61 7 7 3 15 -10 24 -42 32 -73 46 -78
37z"/>
<path d="M3956 3321 c-9 -14 76 -73 88 -61 7 7 3 15 -10 24 -42 32 -73 46 -78
37z"/>
<path d="M4958 3213 c-31 -53 -42 -80 -34 -85 6 -4 17 0 24 10 19 24 72 129
72 142 0 26 -21 4 -62 -67z"/>
<path d="M2966 3254 c-18 -18 -5 -54 19 -54 23 0 18 -19 -15 -52 -35 -35 -32
-48 7 -27 31 17 57 72 49 105 -9 33 -40 48 -60 28z"/>
<path d="M2640 2865 l0 -65 -75 0 -75 0 0 55 c0 42 -3 55 -15 55 -13 0 -15
-21 -15 -127 -1 -145 -11 -202 -45 -255 -20 -30 -22 -38 -10 -48 11 -9 18 -3
39 32 13 24 28 57 31 73 16 71 6 66 123 63 l107 -3 3 -87 c2 -69 6 -88 17 -88
12 0 15 20 15 105 l0 105 -126 0 -125 0 3 43 3 42 163 3 c135 2 162 5 162 17
0 12 -16 15 -75 15 l-75 0 0 65 c0 51 -3 65 -15 65 -12 0 -15 -14 -15 -65z"/>
<path d="M2990 2890 c-9 -35 -14 -40 -40 -40 l-30 0 0 -185 c0 -158 2 -185 15
-185 8 0 15 9 15 20 0 18 7 20 70 20 l70 0 0 165 0 165 -40 0 c-42 0 -45 4
-31 43 8 19 6 27 -4 31 -10 4 -18 -7 -25 -34z m70 -125 l0 -55 -55 0 -55 0 0
55 0 55 55 0 55 0 0 -55z m0 -150 l0 -65 -55 0 -55 0 0 65 0 65 55 0 55 0 0
-65z"/>
<path d="M3166 2896 c-4 -19 -19 -59 -35 -90 -15 -31 -26 -58 -23 -61 12 -12
23 -3 42 35 l20 40 67 0 66 0 -7 -123 c-10 -176 -12 -181 -69 -185 -35 -2 -45
-6 -40 -18 3 -9 20 -14 49 -14 35 0 47 5 59 23 16 25 34 175 35 285 l0 62 -76
0 c-74 0 -75 1 -68 23 11 34 10 49 -2 54 -7 2 -14 -11 -18 -31z"/>
<path d="M4190 2860 c0 -67 -1 -70 -30 -85 -16 -8 -31 -15 -35 -15 -3 0 -5 27
-5 60 0 47 -3 60 -15 60 -12 0 -15 -14 -15 -70 0 -66 -1 -70 -25 -76 -14 -3
-25 -13 -25 -21 0 -11 7 -13 25 -9 l25 6 0 -104 c0 -94 2 -106 19 -116 21 -11
179 -14 205 -4 8 3 20 22 27 41 9 29 9 37 -2 44 -8 5 -15 5 -16 1 -1 -4 -4
-19 -7 -34 l-6 -28 -95 0 -95 0 0 108 0 108 35 17 35 17 0 -90 c0 -73 3 -90
15 -90 12 0 15 17 15 96 l0 95 35 15 c19 7 37 14 40 14 7 0 6 -101 -1 -139 -5
-21 -12 -31 -25 -31 -11 0 -19 -7 -19 -15 0 -17 9 -19 43 -6 23 9 25 16 32
111 4 61 4 105 -2 111 -6 6 -27 2 -56 -10 l-47 -20 0 64 c0 51 -3 65 -15 65
-12 0 -15 -14 -15 -70z"/>
<path d="M944 2888 c-3 -18 -16 -52 -27 -75 -12 -24 -17 -46 -13 -50 9 -9 46
33 46 53 0 8 10 14 25 14 23 0 25 -3 25 -50 l0 -50 -50 0 c-38 0 -50 -4 -50
-15 0 -11 12 -15 50 -15 28 0 50 -4 50 -8 0 -35 -37 -120 -67 -153 -24 -27
-33 -43 -26 -50 13 -13 68 43 90 93 9 21 20 38 24 38 3 0 23 -21 44 -46 25
-30 41 -42 48 -35 10 10 -27 65 -71 104 -12 11 -18 26 -15 38 4 15 14 19 54
19 37 0 49 4 49 15 0 11 -12 15 -50 15 l-50 0 0 50 0 50 40 0 c29 0 40 4 40
15 0 12 -15 15 -71 15 l-71 0 7 30 c5 23 3 30 -8 30 -9 0 -18 -13 -23 -32z"/>
<path d="M2190 2895 c9 -25 9 -25 -50 -25 -47 0 -60 -3 -60 -15 0 -13 21 -15
130 -15 109 0 130 2 130 15 0 12 -13 15 -55 15 -49 0 -57 3 -67 25 -6 14 -17
25 -24 25 -10 0 -11 -6 -4 -25z"/>
<path d="M3608 2713 l-3 -208 -42 -3 c-31 -2 -43 -8 -43 -19 0 -13 9 -15 51
-11 28 3 55 12 60 19 5 8 9 107 9 222 0 176 -2 207 -15 207 -12 0 -15 -32 -17
-207z"/>
<path d="M3960 2865 l0 -55 -35 0 c-24 0 -35 -5 -35 -15 0 -10 11 -15 35 -15
l35 0 0 -85 0 -85 -35 -14 c-23 -10 -33 -20 -29 -30 4 -11 19 -8 77 18 43 20
73 40 75 50 4 16 2 16 -27 1 l-31 -16 0 81 0 80 30 0 c20 0 30 5 30 15 0 10
-10 15 -30 15 -30 0 -30 1 -30 55 0 42 -3 55 -15 55 -12 0 -15 -13 -15 -55z"/>
<path d="M1436 2902 c-3 -5 12 -26 33 -46 50 -48 68 -30 20 20 -34 35 -44 40
-53 26z"/>
<path d="M1900 2885 c0 -10 10 -15 30 -15 17 0 30 -4 30 -8 0 -19 -34 -120
-51 -155 -22 -41 -15 -73 8 -42 11 16 13 6 13 -73 0 -75 3 -92 15 -92 8 0 15
9 15 20 0 17 7 20 45 20 l45 0 0 105 0 105 -45 0 c-25 0 -45 3 -45 8 1 4 7 30
14 57 12 47 15 50 50 53 23 2 36 8 36 18 0 11 -17 14 -80 14 -64 0 -80 -3 -80
-15z m120 -240 l0 -75 -30 0 -30 0 0 75 0 75 30 0 30 0 0 -75z"/>
<path d="M1590 2785 l0 -105 110 0 110 0 0 105 0 105 -110 0 -110 0 0 -105z
m190 0 l0 -75 -80 0 -80 0 0 75 0 75 80 0 80 0 0 -75z"/>
<path d="M1150 2685 c0 -167 2 -195 15 -195 8 0 15 9 15 20 0 18 7 20 55 20
48 0 55 -2 55 -20 0 -11 7 -20 15 -20 13 0 15 28 15 195 l0 195 -85 0 -85 0 0
-195z m140 20 l0 -145 -55 0 -55 0 0 145 0 145 55 0 55 0 0 -145z"/>
<path d="M2130 2806 c0 -7 -13 -40 -30 -72 -35 -69 -34 -64 -17 -64 8 0 22 16
33 35 l18 34 22 -20 c31 -29 43 -5 14 26 -15 16 -21 32 -18 49 4 18 1 26 -8
26 -8 0 -14 -6 -14 -14z"/>
<path d="M2231 2754 c-17 -36 -28 -70 -25 -75 3 -5 0 -9 -5 -9 -6 0 -11 -9
-11 -20 0 -18 -7 -20 -60 -20 -47 0 -60 -3 -60 -15 0 -12 13 -15 60 -15 l60 0
0 -60 c0 -47 3 -60 15 -60 12 0 15 13 15 60 l0 60 60 0 c47 0 60 3 60 15 0 12
-13 15 -60 15 -57 0 -60 1 -60 25 0 13 8 38 18 55 l19 30 28 -30 c19 -20 32
-27 39 -20 7 7 -1 21 -23 44 -26 27 -31 38 -25 60 12 50 -14 26 -45 -40z"/>
<path d="M3476 2788 c-3 -7 -10 -31 -16 -53 -7 -22 -25 -63 -41 -92 -23 -42
-26 -52 -13 -57 23 -9 85 109 95 183 4 26 -18 42 -25 19z"/>
<path d="M3730 2795 c0 -3 15 -36 34 -73 18 -37 39 -84 46 -105 13 -41 37 -45
32 -6 -4 42 -80 189 -97 189 -8 0 -15 -2 -15 -5z"/>
<path d="M1400 2755 c0 -10 11 -15 35 -15 l35 0 0 -96 c0 -52 -5 -105 -11
-116 -21 -39 6 -36 55 6 51 45 63 85 13 46 l-27 -21 0 105 0 106 -50 0 c-38 0
-50 -4 -50 -15z"/>
<path d="M3165 2731 c-8 -13 56 -122 69 -118 20 6 14 23 -23 75 -23 31 -42 49
-46 43z"/>
<path d="M1616 2597 c-3 -13 -17 -41 -31 -62 -18 -26 -23 -41 -16 -48 14 -14
44 23 70 86 19 45 19 47 2 47 -11 0 -21 -9 -25 -23z"/>
<path d="M1773 2556 c29 -58 57 -85 57 -54 0 27 -55 118 -71 118 -15 0 -13 -9
14 -64z"/>
<path d="M10256 2472 c5 -5 61 -26 124 -46 145 -47 307 -131 384 -196 71 -62
91 -56 22 6 -89 81 -225 151 -405 210 -104 34 -144 42 -125 26z"/>
<path d="M7609 2396 c-42 -18 -108 -54 -145 -79 -69 -46 -157 -127 -138 -127
6 0 23 14 40 31 44 47 155 117 246 156 46 19 87 39 93 44 19 19 -22 8 -96 -25z"/>
<path d="M7890 2215 c-210 -132 -270 -175 -247 -175 3 0 99 59 213 131 115 72
228 143 251 158 39 24 55 42 36 41 -5 -1 -118 -70 -253 -155z"/>
<path d="M10145 2231 c7 -12 288 -199 312 -208 42 -16 -10 26 -148 117 -136
92 -180 116 -164 91z"/>
<path d="M8297 2044 c-63 -52 -89 -87 -49 -65 29 16 127 109 121 115 -3 3 -35
-19 -72 -50z"/>
<path d="M9875 2030 c10 -16 137 -110 148 -110 16 0 -13 28 -79 75 -62 45 -81
54 -69 35z"/>
<path d="M7437 1872 c50 -44 317 -122 548 -162 218 -37 493 -61 481 -41 -3 4
-55 11 -116 15 -284 18 -713 106 -849 175 -20 10 -47 21 -61 25 l-25 7 22 -19z"/>
<path d="M10615 1849 c-211 -80 -688 -169 -906 -169 -27 0 -49 -4 -49 -10 0
-30 473 28 705 86 136 33 319 92 342 109 30 23 -3 17 -92 -16z"/>
</g>
</svg>
