<?xml version="1.0" standalone="no"?><!DOCTYPE svg PUBLIC "-//W3C//DTD SVG 1.1//EN" "http://www.w3.org/Graphics/SVG/1.1/DTD/svg11.dtd"><svg height="1024" node-id="1" sillyvg="true" template-height="1024" template-width="1024" version="1.1" viewBox="0 0 1024 1024" width="1024" xmlns="http://www.w3.org/2000/svg" xmlns:xlink="http://www.w3.org/1999/xlink"><defs node-id="16"></defs><path d="M 448.70 135.70 L 458.00 135.10 L 463.20 135.20 L 470.90 135.80 L 502.90 139.70 L 510.00 140.10 L 518.00 140.00 L 526.00 139.50 L 549.90 137.30 L 558.00 137.00 L 567.80 137.10 L 579.30 137.70 L 591.10 139.40 L 596.70 140.80 L 601.70 142.60 L 604.80 144.10 L 607.40 145.80 L 609.60 147.70 L 611.10 149.60 L 613.30 153.80 L 614.30 157.30 L 614.80 160.90 L 615.10 166.80 L 614.70 180.00 L 611.80 213.20 L 610.90 229.70 L 610.30 246.20 L 610.00 279.30 L 618.20 276.20 L 632.20 272.40 L 636.60 271.60 L 640.80 271.30 L 644.60 271.50 L 652.60 273.10 L 681.70 283.70 L 689.80 273.50 L 718.20 233.20 L 728.40 218.20 L 734.70 210.30 L 737.70 207.50 L 740.90 205.00 L 744.40 202.90 L 749.50 201.20 L 752.30 200.80 L 756.70 200.80 L 761.10 201.40 L 765.30 202.60 L 774.60 206.50 L 783.60 211.90 L 789.80 216.70 L 795.60 221.90 L 801.00 227.40 L 816.70 244.70 L 827.80 255.80 L 833.00 260.00 L 838.50 264.00 L 855.20 275.30 L 860.40 279.60 L 871.40 290.00 L 879.30 299.00 L 882.90 303.70 L 886.00 308.50 L 888.50 313.10 L 890.50 319.30 L 890.90 322.00 L 890.80 324.20 L 889.70 328.10 L 888.20 330.70 L 886.40 333.20 L 882.20 337.90 L 892.10 349.50 L 885.50 358.10 L 821.80 431.70 L 789.40 470.00 L 821.30 519.50 L 822.60 522.10 L 823.10 524.90 L 822.90 526.10 L 821.40 528.00 L 819.10 529.00 L 816.60 528.90 L 814.30 527.30 L 812.50 525.10 L 809.60 521.10 L 782.30 478.70 L 666.00 615.90 L 650.80 616.50 L 628.50 616.70 L 619.80 616.50 L 615.60 615.90 L 615.50 614.60 L 615.80 613.20 L 619.80 612.70 L 656.50 612.90 L 663.30 612.40 L 658.50 602.40 L 624.70 602.30 L 617.00 602.00 L 612.90 601.30 L 612.70 600.00 L 613.80 599.00 L 617.40 598.70 L 657.30 599.00 L 651.70 587.10 L 643.90 574.30 L 638.80 566.90 L 627.40 551.80 L 620.00 554.30 L 612.40 556.40 L 597.00 560.10 L 602.70 580.10 L 611.80 616.50 L 613.40 627.40 L 613.40 632.90 L 612.90 638.30 L 611.90 643.50 L 610.30 648.70 L 608.30 653.70 L 605.90 658.60 L 603.10 663.20 L 599.90 667.60 L 596.40 671.70 L 592.60 675.40 L 591.90 666.60 L 588.70 601.50 L 587.70 586.30 L 586.50 574.80 L 585.80 570.70 L 585.20 568.90 L 584.30 568.80 L 583.40 570.10 L 582.50 573.50 L 582.40 577.10 L 583.00 582.80 L 584.20 605.70 L 586.10 647.90 L 588.60 719.60 L 588.60 729.30 L 588.00 733.90 L 587.30 735.10 L 585.80 736.30 L 581.40 737.90 L 574.80 739.00 L 576.90 752.60 L 579.40 766.10 L 582.80 765.00 L 586.30 764.60 L 589.10 765.70 L 591.10 767.00 L 597.10 772.00 L 602.70 777.70 L 609.70 786.00 L 615.80 795.00 L 618.30 799.90 L 620.50 804.90 L 621.90 810.00 L 622.50 813.50 L 622.50 820.50 L 621.90 823.30 L 621.00 826.00 L 618.00 830.90 L 613.80 834.90 L 610.60 837.00 L 607.30 838.40 L 603.80 839.20 L 600.10 839.60 L 596.50 839.60 L 588.50 838.30 L 579.20 835.40 L 572.20 832.30 L 565.00 828.50 L 557.90 824.20 L 551.20 819.60 L 544.80 814.50 L 539.00 809.40 L 535.50 805.80 L 529.80 799.00 L 527.10 794.60 L 526.00 792.20 L 525.20 789.70 L 524.90 787.20 L 525.00 784.70 L 525.60 782.70 L 526.30 781.40 L 529.00 779.00 L 528.20 769.10 L 527.90 759.20 L 528.10 739.30 L 523.70 738.70 L 519.30 737.30 L 517.50 736.20 L 516.00 734.60 L 515.40 732.60 L 515.20 702.90 L 515.60 619.50 L 515.30 573.70 L 515.50 570.30 L 516.00 567.20 L 517.20 562.90 L 518.80 558.80 L 520.80 555.00 L 523.10 551.50 L 525.80 548.20 L 528.80 545.10 L 532.10 542.30 L 535.70 539.80 L 542.60 536.40 L 546.20 535.10 L 553.60 533.40 L 561.30 533.10 L 568.80 534.20 L 573.10 535.40 L 576.90 537.00 L 580.20 538.90 L 586.20 543.60 L 588.80 546.50 L 592.40 551.20 L 595.90 556.60 L 615.90 551.80 L 625.90 548.80 L 635.80 545.40 L 645.50 541.60 L 654.80 537.40 L 671.80 528.10 L 676.10 526.00 L 680.50 524.50 L 679.40 515.40 L 679.00 506.20 L 679.20 487.80 L 680.00 473.20 L 679.70 468.50 L 679.30 467.10 L 677.80 465.00 L 676.20 463.70 L 667.60 458.90 L 660.30 456.20 L 650.20 453.60 L 643.70 451.20 L 639.90 448.60 L 638.10 446.20 L 637.70 444.80 L 638.30 442.90 L 641.20 439.90 L 641.70 438.90 L 641.20 433.50 L 642.00 431.30 L 642.80 430.40 L 645.80 428.60 L 644.20 424.80 L 644.00 423.00 L 644.30 422.20 L 647.80 416.50 L 652.30 410.50 L 655.90 409.10 L 661.70 408.90 L 669.30 410.10 L 678.90 412.70 L 681.00 380.70 L 685.30 296.10 L 685.90 289.40 L 644.70 304.90 L 603.30 319.90 L 511.50 351.70 L 396.30 311.70 L 356.90 296.80 L 336.90 290.20 L 337.30 299.00 L 342.60 369.60 L 345.00 413.80 L 350.60 412.00 L 360.50 409.90 L 366.70 409.80 L 369.20 410.40 L 370.50 411.00 L 372.30 412.90 L 374.70 417.50 L 378.10 420.30 L 379.20 422.20 L 379.40 424.10 L 378.80 428.50 L 380.60 432.50 L 379.90 437.40 L 380.00 438.40 L 383.70 442.60 L 384.30 443.90 L 384.50 445.50 L 384.20 446.70 L 382.60 448.90 L 379.20 451.10 L 374.20 452.90 L 364.90 455.50 L 356.20 458.80 L 352.10 460.90 L 348.20 463.40 L 344.50 466.70 L 344.20 473.70 L 344.80 502.00 L 344.50 509.10 L 343.50 515.50 L 341.60 519.20 L 340.00 520.90 L 362.40 533.10 L 373.10 538.40 L 390.90 545.80 L 406.00 550.80 L 413.70 552.80 L 430.90 556.30 L 435.00 549.70 L 440.40 543.70 L 443.40 541.20 L 446.60 539.00 L 450.10 537.10 L 453.80 535.60 L 457.90 534.50 L 465.50 533.40 L 473.30 533.70 L 481.00 535.30 L 484.70 536.60 L 491.50 540.10 L 496.40 543.90 L 499.40 546.80 L 503.20 551.70 L 506.30 557.00 L 508.60 562.80 L 509.60 566.80 L 510.30 571.90 L 510.50 577.20 L 510.10 616.40 L 510.30 727.30 L 510.10 731.40 L 509.70 733.40 L 508.80 735.10 L 506.30 737.10 L 503.20 738.10 L 500.00 738.60 L 501.10 769.60 L 501.50 800.50 L 497.60 804.60 L 488.60 812.40 L 474.30 822.60 L 463.00 829.80 L 456.70 833.40 L 445.50 838.40 L 436.50 840.90 L 431.90 841.50 L 427.50 841.50 L 423.20 841.00 L 420.40 840.20 L 414.90 837.80 L 412.50 836.10 L 410.30 834.10 L 408.50 831.70 L 407.00 828.70 L 406.10 825.50 L 405.70 822.10 L 405.80 818.60 L 406.90 812.00 L 408.50 806.80 L 410.60 801.90 L 413.10 797.20 L 416.00 792.80 L 422.60 784.30 L 438.20 767.60 L 440.00 766.30 L 441.60 765.70 L 443.20 765.50 L 446.60 765.90 L 449.90 766.80 L 451.60 738.60 L 444.70 737.70 L 441.00 736.10 L 439.20 734.20 L 438.70 732.90 L 438.20 727.70 L 440.80 616.40 L 442.00 585.90 L 442.20 573.30 L 442.00 570.60 L 441.30 568.40 L 440.00 568.40 L 438.80 569.10 L 437.90 571.00 L 437.30 575.80 L 437.30 584.00 L 435.60 641.60 L 435.20 677.00 L 430.90 674.60 L 427.10 671.90 L 423.80 668.80 L 420.80 665.40 L 418.10 661.60 L 415.70 657.30 L 412.50 649.00 L 410.80 640.80 L 410.50 635.30 L 410.60 629.80 L 411.20 624.20 L 412.70 616.00 L 414.80 607.70 L 429.40 559.70 L 416.70 557.60 L 411.10 556.20 L 394.50 551.30 L 392.00 555.50 L 378.50 575.00 L 373.80 582.70 L 369.40 590.70 L 365.60 598.80 L 372.20 598.50 L 404.90 598.20 L 410.60 598.80 L 411.90 599.80 L 411.70 601.10 L 407.50 601.70 L 389.50 602.20 L 364.60 602.20 L 361.50 612.70 L 395.50 612.50 L 403.30 612.80 L 407.60 613.50 L 408.00 615.10 L 407.40 615.80 L 401.80 616.30 L 379.80 616.10 L 358.70 616.50 L 318.00 569.60 L 288.00 533.90 L 240.50 478.20 L 233.10 490.60 L 220.70 510.20 L 209.80 526.00 L 206.90 529.00 L 204.60 529.30 L 202.30 528.30 L 201.00 526.30 L 200.90 524.90 L 202.30 520.80 L 204.70 516.40 L 223.30 486.90 L 234.10 470.60 L 198.90 429.30 L 142.20 361.50 L 132.40 348.20 L 141.80 337.60 L 137.70 332.50 L 136.00 329.70 L 134.10 324.70 L 133.80 320.30 L 134.30 316.90 L 135.20 313.50 L 136.70 309.90 L 140.60 302.90 L 147.20 294.20 L 156.40 284.80 L 165.70 276.90 L 169.70 273.80 L 187.10 262.20 L 195.30 255.70 L 201.40 249.80 L 224.50 225.40 L 235.10 216.10 L 245.20 208.90 L 250.70 205.80 L 254.50 204.00 L 262.20 201.20 L 266.10 200.40 L 270.00 200.10 L 273.90 200.20 L 276.90 200.80 L 279.90 201.80 L 282.70 203.30 L 285.10 205.10 L 288.70 208.70 L 295.30 217.20 L 327.70 266.40 L 334.00 275.20 L 340.50 283.60 L 347.40 280.60 L 360.00 276.20 L 365.00 274.90 L 373.90 273.50 L 382.40 273.50 L 388.60 274.40 L 395.20 276.00 L 410.00 280.60 L 410.10 264.90 L 409.80 203.50 L 408.80 173.70 L 409.00 166.20 L 410.30 155.70 L 411.20 152.60 L 412.60 149.60 L 414.40 146.90 L 418.90 143.00 L 421.50 141.50 L 425.70 139.60 L 430.30 138.20 L 439.80 136.50 L 448.70 135.70 Z M 136.80 321.60 L 138.80 327.50 L 143.30 333.80 L 333.80 559.80 L 351.60 580.40 L 362.90 594.60 L 371.50 579.30 L 376.20 571.90 L 391.20 550.20 L 368.40 540.60 L 355.50 534.40 L 343.90 527.80 L 338.90 524.40 L 335.10 521.40 L 338.40 516.00 L 340.20 510.20 L 340.80 506.20 L 340.90 502.00 L 340.60 497.80 L 340.10 494.50 L 338.10 488.10 L 331.10 472.70 L 326.00 459.90 L 323.00 448.90 L 322.00 439.80 L 322.10 435.60 L 322.60 431.50 L 323.40 428.90 L 324.50 426.40 L 326.00 424.00 L 328.10 421.70 L 330.40 419.80 L 332.90 418.20 L 337.00 416.20 L 341.30 414.50 L 338.80 371.90 L 333.40 297.40 L 333.50 289.00 L 334.40 286.90 L 335.80 285.70 L 328.80 274.20 L 305.50 239.00 L 289.20 215.20 L 284.10 208.80 L 282.00 207.10 L 278.80 205.30 L 275.70 204.20 L 272.50 203.60 L 268.90 203.60 L 264.00 204.80 L 254.80 208.10 L 246.20 212.60 L 242.00 215.40 L 236.50 219.60 L 226.40 228.80 L 205.20 251.00 L 197.90 258.20 L 192.20 262.90 L 186.30 267.10 L 168.50 279.20 L 163.00 283.60 L 157.70 288.40 L 152.80 293.50 L 148.30 298.90 L 144.20 304.50 L 139.70 312.70 L 138.10 317.00 L 136.80 321.60 Z M 144.50 340.80 L 136.90 348.50 L 139.60 352.30 L 200.20 425.10 L 252.10 485.90 L 314.40 559.90 L 335.40 584.40 L 356.60 608.70 L 358.70 610.70 L 359.50 607.90 L 361.40 598.90 L 356.00 591.80 L 278.90 501.00 L 166.60 366.80 L 152.60 349.60 L 147.60 343.80 L 144.50 340.80 Z M 660.10 595.10 L 688.80 560.10 L 712.60 532.30 L 783.60 447.50 L 882.90 330.90 L 885.60 327.00 L 887.50 322.60 L 886.60 319.10 L 885.20 315.50 L 883.30 311.70 L 879.90 306.20 L 875.80 300.60 L 871.10 295.20 L 861.00 285.20 L 851.00 276.80 L 828.90 261.50 L 823.40 256.80 L 818.60 252.00 L 797.10 228.60 L 787.10 219.20 L 778.70 212.90 L 774.30 210.20 L 769.80 208.00 L 765.30 206.30 L 758.20 204.70 L 750.80 204.60 L 744.20 207.30 L 741.30 209.20 L 738.50 211.60 L 735.40 215.00 L 732.40 218.80 L 721.60 234.80 L 686.10 284.90 L 688.90 285.70 L 689.70 287.20 L 689.70 288.90 L 689.40 296.10 L 687.80 317.90 L 682.90 414.30 L 690.50 418.40 L 694.00 420.90 L 697.10 423.70 L 698.80 425.90 L 700.20 428.40 L 701.40 431.20 L 702.20 434.30 L 702.50 437.70 L 702.30 441.50 L 701.50 447.20 L 699.90 453.10 L 698.00 459.00 L 695.80 464.50 L 691.30 474.00 L 686.20 482.20 L 685.00 485.90 L 684.10 497.30 L 684.00 506.30 L 684.20 514.50 L 684.70 520.30 L 685.30 524.50 L 685.00 526.70 L 683.80 527.70 L 680.40 528.30 L 677.90 529.30 L 653.90 541.90 L 642.20 546.80 L 630.20 551.10 L 635.90 556.30 L 643.00 565.20 L 650.80 577.70 L 660.10 595.10 Z M 353.40 444.80 L 369.20 440.00 L 374.30 437.90 L 376.10 436.80 L 376.90 435.90 L 377.00 435.00 L 376.70 434.10 L 375.70 433.30 L 373.80 432.60 L 369.70 432.80 L 366.30 433.50 L 359.20 435.70 L 346.50 441.00 L 337.60 445.70 L 334.80 446.80 L 333.30 446.00 L 335.40 443.70 L 340.40 439.80 L 344.70 437.40 L 349.30 435.40 L 354.20 433.70 L 368.00 429.60 L 374.10 428.60 L 375.50 428.00 L 376.10 427.40 L 376.40 426.60 L 376.20 424.90 L 375.10 423.30 L 374.20 422.70 L 371.90 422.10 L 368.60 422.00 L 364.40 422.60 L 360.00 423.50 L 355.40 424.90 L 346.60 428.20 L 339.50 431.40 L 333.80 434.70 L 332.40 435.00 L 331.20 434.40 L 330.70 433.10 L 331.90 431.50 L 334.10 429.70 L 336.70 428.10 L 345.90 424.20 L 350.70 422.50 L 367.00 418.50 L 370.20 417.30 L 370.30 416.40 L 369.90 415.70 L 367.70 413.90 L 365.00 413.20 L 356.20 414.40 L 346.20 416.90 L 341.30 418.70 L 336.90 420.70 L 331.80 424.10 L 329.90 425.90 L 328.10 428.60 L 326.90 431.30 L 326.10 434.30 L 325.80 437.30 L 326.00 443.60 L 327.40 452.00 L 328.70 456.60 L 331.00 463.20 L 333.80 469.70 L 337.10 475.90 L 340.50 481.20 L 340.90 468.40 L 341.40 466.00 L 342.30 463.90 L 343.60 462.30 L 347.00 459.80 L 355.40 455.30 L 364.40 451.80 L 375.40 448.90 L 377.50 448.00 L 379.20 446.80 L 380.30 444.90 L 379.40 443.10 L 377.70 442.30 L 373.90 442.40 L 370.50 443.10 L 357.70 447.10 L 345.00 452.30 L 338.60 455.90 L 335.70 456.60 L 335.10 455.60 L 335.30 454.50 L 338.20 451.70 L 343.60 448.70 L 353.40 444.80 Z M 685.00 477.20 L 689.00 470.30 L 693.00 461.40 L 696.30 451.80 L 698.30 442.40 L 698.60 438.10 L 698.30 434.60 L 697.50 431.80 L 696.30 429.30 L 694.80 427.10 L 690.80 423.10 L 685.50 419.70 L 678.50 416.60 L 672.80 414.80 L 667.00 413.50 L 663.00 413.00 L 655.80 413.00 L 654.20 414.50 L 653.10 416.30 L 653.90 417.20 L 655.10 417.70 L 672.80 422.00 L 678.60 424.10 L 684.30 426.60 L 692.80 431.40 L 694.30 432.60 L 695.20 434.00 L 694.60 435.10 L 693.50 435.80 L 691.30 435.20 L 689.10 434.10 L 680.70 428.90 L 668.80 424.80 L 657.40 422.00 L 651.30 421.40 L 649.40 421.60 L 648.40 422.50 L 648.00 423.90 L 649.10 426.30 L 649.90 427.20 L 652.30 428.60 L 660.60 430.50 L 667.40 432.40 L 674.20 434.80 L 680.70 437.60 L 686.90 440.90 L 692.90 444.80 L 692.60 446.00 L 691.60 446.90 L 690.10 446.90 L 685.90 445.20 L 675.40 439.20 L 670.80 437.30 L 661.40 434.50 L 652.60 432.50 L 648.60 432.20 L 646.20 433.10 L 645.10 434.00 L 644.80 435.30 L 645.10 436.50 L 647.50 438.20 L 654.50 439.20 L 662.10 441.10 L 672.00 444.70 L 678.20 447.40 L 683.40 450.30 L 685.30 451.80 L 686.60 453.70 L 686.70 454.40 L 686.00 455.00 L 683.50 454.60 L 681.50 453.90 L 674.20 449.90 L 667.40 446.90 L 658.80 444.00 L 654.30 443.00 L 650.10 442.50 L 647.30 442.50 L 642.90 443.50 L 642.30 444.60 L 643.40 446.80 L 646.20 448.30 L 662.10 452.60 L 666.60 454.20 L 671.00 456.10 L 676.50 459.30 L 681.00 463.20 L 682.60 465.60 L 683.90 468.20 L 684.50 470.40 L 685.00 477.20 Z M 360.70 293.90 L 366.20 296.50 L 395.60 307.60 L 437.40 322.30 L 490.40 340.10 L 498.10 342.30 L 479.40 333.70 L 434.80 316.80 L 397.90 304.90 L 360.70 293.90 Z M 477.70 314.80 L 488.40 322.40 L 498.70 330.60 L 509.80 340.50 L 511.90 341.80 L 512.50 341.60 L 529.50 327.20 L 546.90 313.60 L 529.30 309.10 L 523.40 308.20 L 517.40 307.70 L 511.30 307.70 L 502.70 308.80 L 494.30 310.50 L 477.70 314.80 Z M 676.80 286.10 L 652.40 276.70 L 646.20 275.20 L 639.80 274.70 L 635.30 275.20 L 624.40 277.90 L 618.60 279.80 L 606.90 284.40 L 596.00 289.50 L 586.90 294.20 L 579.80 298.30 L 559.20 311.30 L 544.10 320.40 L 539.50 323.80 L 540.20 323.90 L 542.60 322.80 L 548.00 319.10 L 559.80 312.30 L 571.80 305.90 L 585.90 299.40 L 600.20 293.70 L 614.70 288.70 L 635.60 282.60 L 640.30 281.60 L 646.20 280.90 L 648.30 281.30 L 648.50 281.00 L 647.40 281.00 L 647.30 282.00 L 644.50 283.40 L 637.40 286.00 L 618.70 291.10 L 605.60 295.40 L 592.70 300.20 L 583.80 304.00 L 575.60 308.00 L 543.10 324.90 L 540.90 326.70 L 535.40 330.00 L 535.30 330.40 L 546.70 324.20 L 564.90 315.70 L 589.50 305.30 L 602.20 300.60 L 615.00 296.20 L 649.40 285.70 L 651.70 285.30 L 654.10 285.60 L 655.60 287.00 L 654.50 288.00 L 650.10 289.50 L 641.00 291.50 L 630.50 294.50 L 620.10 297.80 L 603.30 303.70 L 586.90 309.90 L 570.70 316.70 L 542.90 329.40 L 537.10 332.50 L 531.90 336.00 L 535.20 335.20 L 538.70 334.00 L 552.10 327.80 L 563.10 323.50 L 589.60 314.00 L 656.40 292.20 L 676.80 286.10 Z M 478.10 330.30 L 486.60 333.80 L 489.60 334.60 L 487.10 333.00 L 462.90 321.70 L 443.10 313.60 L 428.10 308.40 L 412.80 303.70 L 381.70 295.50 L 350.70 288.30 L 342.20 287.00 L 345.00 288.30 L 348.00 289.40 L 354.10 290.60 L 378.30 297.20 L 427.80 312.10 L 453.30 320.50 L 465.80 325.20 L 478.10 330.30 Z M 887.10 349.80 L 881.80 343.50 L 878.90 341.30 L 869.20 352.30 L 840.90 386.20 L 766.80 473.10 L 694.30 559.50 L 669.60 589.80 L 660.90 599.40 L 664.90 607.10 L 666.40 609.30 L 667.30 609.10 L 667.90 608.50 L 818.80 430.00 L 876.80 362.80 L 882.20 356.40 L 887.10 349.80 Z M 600.30 634.60 L 601.40 617.20 L 601.00 605.40 L 600.10 599.90 L 598.40 599.10 L 596.50 598.80 L 596.60 633.50 L 597.30 634.40 L 600.30 634.60 Z M 453.00 768.00 L 468.10 775.50 L 473.30 779.20 L 474.40 780.60 L 473.80 781.20 L 471.20 780.70 L 467.80 779.30 L 456.20 773.50 L 448.50 770.20 L 445.20 769.40 L 443.10 769.40 L 441.30 769.80 L 439.80 770.70 L 425.90 785.60 L 421.70 790.60 L 415.40 799.80 L 411.70 807.50 L 410.30 811.60 L 409.50 815.60 L 409.10 819.80 L 409.30 823.10 L 410.10 826.20 L 410.90 828.20 L 413.50 831.70 L 415.50 833.40 L 418.00 835.00 L 423.70 837.40 L 429.30 838.20 L 436.90 837.30 L 441.00 836.30 L 447.00 834.10 L 453.20 831.30 L 459.30 828.00 L 465.30 824.40 L 476.50 816.80 L 494.40 803.00 L 497.80 799.40 L 498.40 797.20 L 497.70 789.30 L 486.40 799.30 L 472.90 810.20 L 465.60 815.40 L 458.20 820.10 L 448.00 825.30 L 443.20 827.20 L 438.10 828.60 L 433.40 829.40 L 426.10 829.30 L 423.30 828.90 L 419.90 827.70 L 418.50 826.60 L 418.10 825.50 L 418.30 824.40 L 421.50 824.40 L 428.10 826.10 L 433.20 826.00 L 438.30 825.00 L 444.30 823.10 L 449.90 820.80 L 455.20 818.00 L 465.30 811.60 L 470.10 807.90 L 498.00 784.80 L 496.80 738.90 L 475.70 739.40 L 454.60 738.90 L 454.20 753.50 L 453.00 768.00 Z M 424.30 598.10 L 424.00 620.80 L 424.40 631.70 L 424.70 633.70 L 427.50 634.40 L 428.00 630.00 L 428.20 621.80 L 428.10 603.90 L 427.70 599.10 L 426.10 598.40 L 424.30 598.10 Z M 531.90 739.70 L 531.00 747.00 L 530.80 757.10 L 531.30 768.00 L 531.90 773.30 L 532.70 777.80 L 533.80 781.80 L 535.00 784.40 L 537.60 787.90 L 541.30 791.90 L 545.50 795.70 L 555.50 803.50 L 566.20 810.60 L 576.00 816.30 L 584.00 820.10 L 588.10 821.70 L 596.50 824.00 L 604.20 824.60 L 606.00 825.00 L 606.90 825.80 L 605.80 827.60 L 603.70 828.40 L 599.80 828.40 L 596.40 827.80 L 592.50 826.80 L 584.50 824.00 L 572.10 818.50 L 560.40 811.30 L 554.80 807.30 L 546.60 800.90 L 538.80 794.20 L 529.50 783.50 L 528.80 783.80 L 528.60 784.40 L 528.50 786.50 L 528.80 788.90 L 529.60 791.30 L 531.80 795.80 L 536.90 802.30 L 541.60 806.90 L 551.50 815.10 L 562.50 822.60 L 568.80 826.40 L 580.10 831.90 L 589.20 835.00 L 593.80 835.90 L 598.10 836.20 L 602.30 835.90 L 607.50 834.50 L 612.10 831.80 L 614.10 830.00 L 615.90 827.90 L 617.40 825.40 L 618.40 822.80 L 619.00 820.10 L 619.20 814.60 L 618.80 811.80 L 617.70 807.50 L 616.20 803.30 L 611.90 795.00 L 606.40 787.10 L 601.70 781.60 L 596.60 776.50 L 591.30 771.90 L 586.10 768.00 L 573.60 772.10 L 569.60 773.80 L 561.10 778.50 L 558.90 779.40 L 557.10 779.70 L 556.30 778.60 L 556.10 777.30 L 557.10 776.20 L 559.50 774.70 L 565.50 771.70 L 576.40 767.10 L 573.50 753.40 L 571.50 739.40 L 551.70 741.00 L 545.00 741.00 L 538.40 740.60 L 531.90 739.70 Z M 569.10 300.60 L 578.20 294.90 L 587.40 289.90 L 606.60 280.70 L 606.40 262.60 L 606.60 244.30 L 607.40 226.00 L 608.50 207.90 L 611.40 177.70 L 611.70 170.20 L 611.00 159.20 L 610.20 155.70 L 609.40 153.50 L 608.20 151.50 L 606.60 149.70 L 604.20 148.00 L 601.20 146.30 L 597.60 144.90 L 591.80 143.30 L 585.20 142.10 L 571.30 140.80 L 558.10 140.60 L 547.50 141.10 L 520.00 143.70 L 513.10 143.90 L 506.20 143.80 L 499.80 143.20 L 470.10 139.50 L 462.90 138.90 L 453.70 138.80 L 441.40 140.00 L 432.40 141.60 L 427.90 142.90 L 423.90 144.60 L 419.10 147.60 L 417.10 149.50 L 415.80 151.30 L 414.00 156.10 L 412.80 163.50 L 412.40 170.50 L 412.30 177.50 L 413.10 205.60 L 413.50 264.80 L 414.10 282.10 L 429.40 288.30 L 437.10 291.80 L 444.70 295.50 L 452.00 299.70 L 458.90 304.10 L 459.70 300.90 L 461.00 297.80 L 462.60 294.70 L 465.60 290.50 L 469.20 286.50 L 473.10 283.00 L 477.00 280.10 L 482.10 277.00 L 487.50 274.50 L 493.40 272.50 L 499.40 271.00 L 505.50 269.90 L 511.70 269.40 L 517.90 269.40 L 523.90 269.80 L 529.70 270.70 L 535.10 271.90 L 540.40 273.70 L 545.60 275.90 L 550.50 278.60 L 555.10 281.80 L 559.30 285.40 L 562.30 288.90 L 564.90 292.50 L 569.10 300.60 Z M 483.50 328.30 L 481.80 326.60 L 478.60 324.50 L 461.50 315.40 L 450.40 310.00 L 439.30 305.10 L 427.90 300.70 L 416.20 296.60 L 386.50 287.80 L 373.50 285.10 L 370.40 284.00 L 368.00 282.70 L 367.90 281.80 L 368.70 281.30 L 371.30 281.20 L 374.50 281.40 L 381.10 282.80 L 417.00 293.20 L 428.90 297.30 L 440.60 301.70 L 448.30 305.00 L 463.00 312.20 L 482.90 323.70 L 495.60 331.80 L 491.40 328.30 L 482.10 321.90 L 449.10 302.50 L 439.60 297.30 L 429.90 292.60 L 416.70 287.00 L 403.10 282.10 L 395.40 279.80 L 384.70 277.40 L 376.90 276.90 L 373.10 277.10 L 364.90 278.50 L 358.40 280.40 L 348.60 284.00 L 347.00 285.40 L 350.10 285.90 L 397.30 296.80 L 412.90 300.90 L 428.40 305.30 L 443.90 310.40 L 454.90 314.60 L 465.80 319.50 L 479.70 326.80 L 483.50 328.30 Z" fill="#fffefe" fill-rule="nonzero" node-id="18" stroke="none" target-height="706.4" target-width="759.69995" target-x="132.4" target-y="135.1"></path><path d="M 444.60 776.90 L 451.90 779.10 L 457.40 781.70 L 462.10 784.80 L 463.60 786.30 L 464.20 787.50 L 464.10 788.90 L 463.20 788.70 L 456.80 786.00 L 451.70 783.40 L 444.90 779.20 L 444.50 778.10 L 444.60 776.90 Z" fill="#ffffff" fill-rule="nonzero" node-id="20" stroke="none" target-height="12" target-width="19.700012" target-x="444.5" target-y="776.9"></path><path d="M 582.10 776.50 L 584.30 776.50 L 585.50 777.20 L 585.50 778.00 L 584.10 779.10 L 577.10 783.10 L 566.70 788.40 L 565.50 788.10 L 564.60 787.30 L 564.60 786.20 L 566.90 784.30 L 572.90 780.70 L 582.10 776.50 Z" fill="#ffffff" fill-rule="nonzero" node-id="22" stroke="none" target-height="11.900024" target-width="20.900024" target-x="564.6" target-y="776.5"></path><path d="M 856.70 755.50 L 858.20 755.60 L 858.90 756.40 L 858.80 757.50 L 856.60 759.00 L 853.40 760.80 L 845.60 764.00 L 831.00 768.90 L 815.40 773.70 L 799.70 778.20 L 783.90 782.30 L 767.80 785.90 L 751.70 789.20 L 719.40 794.60 L 703.10 796.80 L 681.30 799.10 L 659.60 800.90 L 637.90 802.00 L 635.70 801.80 L 635.40 800.70 L 635.60 799.50 L 637.90 798.70 L 640.50 798.40 L 664.20 797.40 L 682.80 795.80 L 701.40 793.50 L 742.60 787.10 L 763.00 783.20 L 783.30 778.70 L 810.20 771.60 L 831.90 764.80 L 856.70 755.50 Z" fill="#ffffff" fill-rule="nonzero" node-id="24" stroke="none" target-height="46.5" target-width="223.5" target-x="635.4" target-y="755.5"></path><path d="M 164.90 753.80 L 170.10 755.20 L 189.50 764.00 L 204.20 769.00 L 219.10 773.50 L 234.10 777.60 L 249.20 781.20 L 270.60 785.50 L 292.10 789.30 L 313.70 792.50 L 335.40 795.30 L 350.60 796.70 L 365.90 797.90 L 379.30 798.40 L 385.30 799.50 L 385.90 800.80 L 385.90 802.30 L 369.10 801.80 L 336.80 798.90 L 319.70 797.00 L 284.40 791.80 L 266.30 788.50 L 248.40 784.80 L 236.60 782.10 L 214.00 776.00 L 192.80 769.00 L 177.50 763.00 L 171.70 760.40 L 168.90 758.90 L 165.70 756.40 L 164.90 753.80 Z" fill="#ffffff" fill-rule="nonzero" node-id="26" stroke="none" target-height="48.5" target-width="221" target-x="164.9" target-y="753.8"></path><path d="M 529.90 348.60 L 532.40 349.20 L 533.00 351.40 L 533.10 353.80 L 532.80 377.20 L 533.20 502.30 L 532.90 530.30 L 532.40 531.60 L 531.20 533.00 L 530.40 532.20 L 530.20 531.00 L 529.40 512.60 L 529.30 471.00 L 529.80 401.50 L 529.40 359.50 L 529.90 348.60 Z" fill="#010000" fill-rule="nonzero" node-id="28" stroke="none" target-height="184.4" target-width="3.9000244" target-x="529.3" target-y="348.6"></path><path d="M 493.00 348.10 L 494.50 348.90 L 495.30 350.30 L 495.70 355.20 L 495.90 364.30 L 495.50 403.40 L 495.90 496.80 L 495.50 530.40 L 494.60 532.80 L 493.50 532.40 L 492.60 531.70 L 492.30 526.60 L 492.10 391.10 L 491.70 363.60 L 492.00 354.30 L 493.00 348.10 Z" fill="#010000" fill-rule="nonzero" node-id="30" stroke="none" target-height="184.69998" target-width="4.1999817" target-x="491.7" target-y="348.1"></path><path d="M 761.00 629.70 L 766.00 630.50 L 771.20 631.80 L 795.70 639.50 L 810.30 644.80 L 819.90 648.80 L 838.70 657.80 L 847.70 662.90 L 856.40 668.40 L 864.70 674.20 L 869.10 677.60 L 877.70 685.30 L 881.40 689.60 L 882.50 692.00 L 880.70 692.50 L 879.00 691.70 L 866.30 680.50 L 859.80 675.50 L 846.50 666.70 L 832.10 658.90 L 816.00 651.40 L 795.30 643.40 L 771.90 635.80 L 764.70 634.20 L 762.50 633.30 L 761.80 632.70 L 761.40 631.80 L 761.00 629.70 Z" fill="#ffffff" fill-rule="nonzero" node-id="32" stroke="none" target-height="62.799988" target-width="121.5" target-x="761" target-y="629.7"></path><path d="M 316.00 653.00 L 317.30 653.00 L 318.60 653.40 L 319.00 654.40 L 318.30 655.40 L 315.60 657.50 L 309.00 661.80 L 288.70 674.20 L 212.80 722.00 L 212.00 722.50 L 210.70 722.00 L 210.60 720.60 L 211.60 719.10 L 215.80 715.60 L 252.40 693.10 L 316.00 653.00 Z" fill="#ffffff" fill-rule="nonzero" node-id="34" stroke="none" target-height="69.5" target-width="108.399994" target-x="210.6" target-y="653"></path><path d="M 223.00 640.60 L 224.40 640.70 L 225.60 641.30 L 225.00 642.50 L 224.20 643.20 L 201.20 652.80 L 191.20 657.60 L 181.50 663.00 L 175.10 666.90 L 163.00 675.60 L 157.30 680.40 L 151.90 685.40 L 146.80 690.60 L 145.70 690.50 L 144.70 689.80 L 144.70 688.70 L 146.90 685.70 L 149.60 682.90 L 162.90 671.70 L 170.70 666.00 L 178.90 660.70 L 187.30 655.80 L 195.90 651.30 L 204.70 647.30 L 213.80 643.70 L 223.00 640.60 Z" fill="#ffffff" fill-rule="nonzero" node-id="36" stroke="none" target-height="50" target-width="80.90001" target-x="144.7" target-y="640.6"></path><path d="M 737.70 679.70 L 741.00 680.70 L 745.00 683.10 L 798.00 718.50 L 804.50 723.10 L 805.80 724.30 L 806.50 725.90 L 806.30 727.80 L 803.60 726.90 L 794.80 721.30 L 768.90 703.60 L 749.00 690.80 L 742.30 686.40 L 738.50 683.30 L 737.70 681.60 L 737.70 679.70 Z" fill="#ffffff" fill-rule="nonzero" node-id="38" stroke="none" target-height="48.099976" target-width="68.79999" target-x="737.7" target-y="679.7"></path><path d="M 680.20 721.90 L 684.00 723.90 L 690.20 728.00 L 705.00 738.60 L 712.80 745.10 L 713.80 746.60 L 713.40 748.20 L 711.60 747.80 L 708.30 745.80 L 688.00 730.80 L 680.60 724.50 L 679.80 723.20 L 680.20 721.90 Z" fill="#ffffff" fill-rule="nonzero" node-id="40" stroke="none" target-height="26.299988" target-width="34" target-x="679.8" target-y="721.9"></path><path d="M 363.80 709.70 L 365.10 710.40 L 365.40 711.60 L 364.40 712.90 L 355.90 721.20 L 348.40 727.60 L 336.80 736.70 L 335.00 735.00 L 335.50 734.20 L 341.80 728.00 L 363.80 709.70 Z" fill="#ffffff" fill-rule="nonzero" node-id="42" stroke="none" target-height="27" target-width="30.399994" target-x="335" target-y="709.7"></path></svg>